<?xml version="1.0" encoding="UTF-8" standalone="no"?>
<svg
   xmlns:dc="http://purl.org/dc/elements/1.1/"
   xmlns:cc="http://creativecommons.org/ns#"
   xmlns:rdf="http://www.w3.org/1999/02/22-rdf-syntax-ns#"
   xmlns:svg="http://www.w3.org/2000/svg"
   xmlns="http://www.w3.org/2000/svg"
   xml:space="preserve"
   enable-background="new 0 0 256 256"
   viewBox="0 0 256 256"
   height="256px"
   width="256px"
   y="0px"
   x="0px"
   id="Layer_1"
   version="1.1"><metadata
     id="metadata4188"><rdf:RDF><cc:Work
         rdf:about=""><dc:format>image/svg+xml</dc:format><dc:type
           rdf:resource="http://purl.org/dc/dcmitype/StillImage" /><dc:title></dc:title></cc:Work></rdf:RDF></metadata><defs
     id="defs4186" /><g
     id="g4500"><path
       style="fill:#fef208;fill-opacity:1;fill-rule:evenodd;stroke:none;stroke-width:1px;stroke-linecap:butt;stroke-linejoin:miter;stroke-opacity:1"
       d="M 58.080522,112.12187 C 58.080522,112.12187 41.92383,102.92927 39.973885,100.14363 C 38.023939,97.357998 33.984766,90.67247 34.959739,86.215451 C 35.934712,81.758433 39.695321,76.047878 41.784548,72.008705 C 43.873776,67.969532 46.520131,57.384113 54.180631,54.459195 C 61.841132,51.534276 66.994559,49.584331 71.869423,49.862894 C 76.744287,50.141458 88.165397,54.459195 93.318825,58.359086 C 98.472253,62.258977 103.76496,66.29815 103.76496,73.262241 C 103.76496,80.226333 104.73993,81.479869 103.76496,83.290533 C 102.78999,85.101197 99.725789,92.20457 99.725789,94.711643 C 99.725789,97.218716 100.70076,104.32209 99.307943,106.5506 C 97.915125,108.77911 86.354733,113.23613 83.290533,114.35038 C 80.226333,115.46464 66.994559,115.32535 62.955386,114.07182 C 58.916213,112.81828 58.080522,112.12187 58.080522,112.12187 Z"
       id="path4410" /><path
       style="fill:#fef208;fill-opacity:1;fill-rule:evenodd;stroke:#000000;stroke-width:1px;stroke-linecap:butt;stroke-linejoin:miter;stroke-opacity:1"
       d="M 53.205658,54.319913 C 52.927094,48.191512 57.523395,35.516866 64.487487,26.045702 C 71.451578,16.574537 88.443961,4.735582 90.811752,5.7105548 C 93.179543,6.6855276 84.961915,27.995647 83.290533,30.920566 C 81.619151,33.845484 73.819369,45.545158 69.501632,49.584331"
       id="path4360" /><path
       style="fill:#000000;fill-opacity:1;fill-rule:evenodd;stroke:#000000;stroke-width:1px;stroke-linecap:butt;stroke-linejoin:miter;stroke-opacity:1"
       d="M 64.905332,25.210011 C 76.883569,21.449401 86.633297,22.702938 86.633297,22.702938 C 86.633297,22.702938 92.343852,6.406964 91.090316,5.9891185 C 89.836779,5.571273 75.351469,14.48531 72.705114,17.688792 C 70.05876,20.892274 64.905332,25.210011 64.905332,25.210011 Z"
       id="path4366" /><path
       style="fill:#fef208;fill-opacity:1;fill-rule:evenodd;stroke:#000000;stroke-width:1px;stroke-linecap:butt;stroke-linejoin:miter;stroke-opacity:1"
       d="M 101.9543,66.437432 C 106.96845,68.805223 112.26115,70.337323 118.66812,76.883569 C 125.07508,83.429815 131.50985,91.463511 133.84983,97.079434 C 135.24266,100.4222 138.7247,106.96844 137.74973,107.66485 C 136.77476,108.36126 120.47878,101.81502 116.16104,98.054407 C 111.84331,94.293798 105.0185,86.354734 103.06855,83.01197"
       id="path4368" /><path
       style="fill:#000000;fill-opacity:1;fill-rule:evenodd;stroke:#000000;stroke-width:1px;stroke-linecap:butt;stroke-linejoin:miter;stroke-opacity:1"
       d="M 122.56801,81.479869 C 123.54298,89.001088 117.41458,99.447225 117.41458,99.447225 L 127.72144,104.60065 L 138.02829,107.80413 L 133.29271,95.965179 L 127.02503,86.215451 Z"
       id="path4370" /><ellipse
       style="opacity:1;fill:#ff0000;fill-opacity:1;stroke:#000000;stroke-width:1;stroke-miterlimit:4;stroke-dasharray:none;stroke-opacity:1"
       id="path4374"
       cx="42.620239"
       cy="84.822632"
       rx="7.0031424"
       ry="7.5602694" /><ellipse
       style="opacity:1;fill:#ff0000;fill-opacity:1;stroke:#000000;stroke-width:1.09915638;stroke-miterlimit:4;stroke-dasharray:none;stroke-opacity:1"
       id="path4374-5"
       cx="92.065292"
       cy="101.81501"
       rx="8.0678186"
       ry="7.9285364" /><path
       style="fill:none;fill-rule:evenodd;stroke:#000000;stroke-width:1px;stroke-linecap:round;stroke-linejoin:miter;stroke-opacity:1"
       d="M 47.21654,105.85419 C 40.670294,101.39717 35.377584,95.825898 35.099021,89.976061 C 34.820457,84.126224 36.770403,80.644178 38.998912,77.579978 C 41.227421,74.515778 46.241567,59.751904 50.002176,56.687704 C 53.762786,53.623504 57.384113,52.787813 57.384113,52.787813"
       id="path4399" /><path
       style="fill:none;fill-rule:evenodd;stroke:#000000;stroke-width:1px;stroke-linecap:round;stroke-linejoin:miter;stroke-opacity:1"
       d="M 76.047878,115.32535 C 83.708379,115.18607 95.686616,109.6148 98.472253,107.38629 C 101.25789,105.15778 99.168662,95.965179 100.00435,93.318825 C 100.84004,90.67247 104.18281,81.479869 104.18281,80.365615 C 104.18281,79.25136 103.76496,77.997824 103.76496,77.997824"
       id="path4401" /><path
       style="fill:none;fill-rule:evenodd;stroke:#000000;stroke-width:1px;stroke-linecap:round;stroke-linejoin:miter;stroke-opacity:1"
       d="M 63.23395,50.559303 C 68.526659,49.584331 76.326442,50.141458 82.176279,52.230685 C 88.026115,54.319913 96.940152,60.587595 99.586507,63.373232 C 102.23286,66.158868 103.20783,69.223068 103.20783,69.223068"
       id="path4403" /><ellipse
       style="opacity:1;fill:#343034;fill-opacity:1;stroke:#000000;stroke-width:1;stroke-linecap:round;stroke-miterlimit:4;stroke-dasharray:none;stroke-opacity:1"
       id="path4430-6"
       cx="90.779182"
       cy="84.756065"
       rx="5.3623505"
       ry="5.4319911" /><ellipse
       style="opacity:1;fill:#343034;fill-opacity:1;stroke:#000000;stroke-width:1;stroke-linecap:round;stroke-miterlimit:4;stroke-dasharray:none;stroke-opacity:1"
       id="path4430"
       cx="55.643089"
       cy="72.147987"
       rx="5.3623505"
       ry="5.4319911" /><circle
       style="opacity:1;fill:#949494;fill-opacity:1;stroke:none;stroke-width:1;stroke-linecap:round;stroke-miterlimit:4;stroke-dasharray:none;stroke-opacity:1"
       id="path4471"
       cx="58.080521"
       cy="70.755165"
       r="2.3677912" /><circle
       style="opacity:1;fill:#949494;fill-opacity:1;stroke:none;stroke-width:1;stroke-linecap:round;stroke-miterlimit:4;stroke-dasharray:none;stroke-opacity:1"
       id="path4471-2"
       cx="89.836777"
       cy="81.75843"
       r="2.3677912" /></g><path
     id="path4201"
     d="M 59.751904,61.70185 L 69.223069,74.933623 L 76.465724,66.29815 L 70.615887,58.080522 Z"
     style="fill:#fef208;fill-opacity:1;fill-rule:evenodd;stroke:none;stroke-width:1px;stroke-linecap:butt;stroke-linejoin:miter;stroke-opacity:1" /><path
     id="path4201-3"
     d="M 76.605006,73.331884 L 79.251361,81.410228 L 94.850926,76.674647 L 89.83678,66.924919 Z"
     style="fill:#fef208;fill-opacity:1;fill-rule:evenodd;stroke:none;stroke-width:1px;stroke-linecap:butt;stroke-linejoin:miter;stroke-opacity:1" /><path
     id="path4233"
     d="M 60.309032,83.986942 C 60.726877,89.697497 65.367922,89.840817 68.944505,88.026115 C 69.317605,91.643404 75.946337,93.608749 78.276387,90.533188"
     style="fill:none;fill-rule:evenodd;stroke:#000000;stroke-width:1px;stroke-linecap:butt;stroke-linejoin:miter;stroke-opacity:1" /><path
     id="path4235"
     d="M 92.900979,98.890098 L 95.965183,98.33297 L 94.433081,100.70077 L 97.915125,100.4222"
     style="fill:none;fill-opacity:1;fill-rule:evenodd;stroke:#007ebf;stroke-width:1px;stroke-linecap:butt;stroke-linejoin:miter;stroke-opacity:1" /><path
     id="path4235-7"
     d="M 91.988604,102.54127 L 94.183448,103.03842 L 92.188798,104.16944 L 95.259072,105.13526"
     style="fill:none;fill-opacity:1;fill-rule:evenodd;stroke:#007ebf;stroke-width:1px;stroke-linecap:butt;stroke-linejoin:miter;stroke-opacity:1" /><path
     id="path4235-7-5"
     d="M 37.827144,76.478242 L 40.74703,78.027522 L 38.448054,79.608578 L 42.343713,81.204714"
     style="fill:none;fill-opacity:1;fill-rule:evenodd;stroke:#007ebf;stroke-width:1px;stroke-linecap:butt;stroke-linejoin:miter;stroke-opacity:1" /><path
     id="path4235-7-5-3"
     d="M 36.324177,83.036945 L 40.747534,83.39481 L 40.70283,85.361522 L 41.96244,84.934525"
     style="fill:none;fill-opacity:1;fill-rule:evenodd;stroke:#007ebf;stroke-width:1px;stroke-linecap:butt;stroke-linejoin:miter;stroke-opacity:1" /><path
     id="path4282"
     d="M 62.537541,88.583242 C 62.537541,88.583242 62.816104,92.343848 66.437431,94.154518 C 70.058759,95.965188 73.401523,91.508161 73.401523,91.508161"
     style="fill:none;fill-rule:evenodd;stroke:#000000;stroke-width:1px;stroke-linecap:butt;stroke-linejoin:miter;stroke-opacity:1" /></svg>