<?xml version="1.0" encoding="UTF-8" standalone="no"?>
<svg
   xmlns:dc="http://purl.org/dc/elements/1.1/"
   xmlns:cc="http://creativecommons.org/ns#"
   xmlns:rdf="http://www.w3.org/1999/02/22-rdf-syntax-ns#"
   xmlns:svg="http://www.w3.org/2000/svg"
   xmlns="http://www.w3.org/2000/svg"
   width="210mm"
   height="297mm"
   viewBox="0 0 744.09448819 1052.3622047"
   id="svg2"
   version="1.1">
  <defs
     id="defs4" />
  <metadata
     id="metadata7">
    <rdf:RDF>
      <cc:Work
         rdf:about="">
        <dc:format>image/svg+xml</dc:format>
        <dc:type
           rdf:resource="http://purl.org/dc/dcmitype/StillImage" />
        <dc:title></dc:title>
      </cc:Work>
    </rdf:RDF>
  </metadata>
  <ellipse
     ry="127.39423"
     rx="139.70424"
     cy="160.60262"
     cx="202.68565"
     id="path4773"
     style="opacity:1;fill:none;stroke:#000000;stroke-width:2;stroke-miterlimit:4;stroke-dasharray:none;stroke-opacity:1" />
  <path
     id="path4775"
     d="M 121.95492,196.96006 C 133.97865,225.58798 141.99789,185.77311 196.38751,184.93634 C 233.6038,184.36378 286.27916,206.121 286.27916,206.121 C 286.27916,206.121 287.77,149.28574 273.68288,169.47726 C 256.50613,194.09727 218.14472,163.75168 190.08937,164.8968 C 162.03401,166.04192 155.16331,204.40332 140.27679,181.50099 C 128.93561,164.05302 110.85129,170.52285 121.95492,196.96006 Z"
     style="fill:none;fill-rule:evenodd;stroke:#000000;stroke-width:1px;stroke-linecap:butt;stroke-linejoin:miter;stroke-opacity:1" />
  <path
     id="path4779"
     d="M 123.10004,89.3191 C 142.56702,89.319098 133.97865,95.61724 147.72005,95.61724 C 161.46145,95.61724 170.62238,108.21352 170.62238,108.21352"
     style="fill:none;fill-rule:evenodd;stroke:#000000;stroke-width:1px;stroke-linecap:butt;stroke-linejoin:miter;stroke-opacity:1" />
  <path
     id="path4781"
     d="M 214.70937,112.79399 C 223.29775,97.907473 225.01542,101.34282 233.6038,99.05259 C 242.19217,96.762357 255.36102,88.173984 255.36102,88.173984"
     style="fill:none;fill-rule:evenodd;stroke:#000000;stroke-width:1px;stroke-linecap:butt;stroke-linejoin:miter;stroke-opacity:1" />
</svg>
