<?xml version="1.0" encoding="UTF-8" standalone="no"?>
<svg
   xmlns:dc="http://purl.org/dc/elements/1.1/"
   xmlns:cc="http://creativecommons.org/ns#"
   xmlns:rdf="http://www.w3.org/1999/02/22-rdf-syntax-ns#"
   xmlns:svg="http://www.w3.org/2000/svg"
   xmlns="http://www.w3.org/2000/svg"
   width="210mm"
   height="297mm"
   viewBox="0 0 744.09448819 1052.3622047"
   id="svg2"
   version="1.1">
  <defs
     id="defs4" />
  <metadata
     id="metadata7">
    <rdf:RDF>
      <cc:Work
         rdf:about="">
        <dc:format>image/svg+xml</dc:format>
        <dc:type
           rdf:resource="http://purl.org/dc/dcmitype/StillImage" />
        <dc:title></dc:title>
      </cc:Work>
    </rdf:RDF>
  </metadata>
  <ellipse
     ry="127.39423"
     rx="139.70424"
     cy="160.60262"
     cx="202.68565"
     id="path4773"
     style="opacity:1;fill:none;stroke:#000000;stroke-width:2;stroke-miterlimit:4;stroke-dasharray:none;stroke-opacity:1" />
  <path
     id="path4775"
     d="M 121.95492,196.96006 C 133.97865,225.58798 135.12377,250.78055 189.51681,250.20799 C 243.90985,249.63543 286.27916,206.121 286.27916,206.121 C 286.27916,206.121 299.448,183.79122 274.828,183.79122 C 250.20799,183.79122 220.43495,228.45077 192.3796,229.59589 C 164.32424,230.74101 155.16331,204.40332 140.27679,181.50099 C 128.93561,164.05302 110.85129,170.52285 121.95492,196.96006 Z"
     style="fill:none;fill-rule:evenodd;stroke:#000000;stroke-width:1px;stroke-linecap:butt;stroke-linejoin:miter;stroke-opacity:1" />
  <path
     id="path4779"
     d="M 121.38237,106.49585 C 126.53539,93.899565 133.97865,89.319098 147.72005,89.319098 C 161.46145,89.319098 170.62238,108.21352 170.62238,108.21352"
     style="fill:none;fill-rule:evenodd;stroke:#000000;stroke-width:1px;stroke-linecap:butt;stroke-linejoin:miter;stroke-opacity:1" />
  <path
     id="path4781"
     d="M 214.70937,112.79399 C 223.29775,97.907473 227.87821,96.189798 236.46659,93.899565 C 245.05496,91.609332 264.52195,109.9312 264.52195,109.9312"
     style="fill:none;fill-rule:evenodd;stroke:#000000;stroke-width:1px;stroke-linecap:butt;stroke-linejoin:miter;stroke-opacity:1" />
</svg>
