<?xml version="1.0" encoding="UTF-8" standalone="no"?>
<svg
   xmlns:dc="http://purl.org/dc/elements/1.1/"
   xmlns:cc="http://creativecommons.org/ns#"
   xmlns:rdf="http://www.w3.org/1999/02/22-rdf-syntax-ns#"
   xmlns:svg="http://www.w3.org/2000/svg"
   xmlns="http://www.w3.org/2000/svg"
   version="1.1"
   id="svg2"
   viewBox="0 0 744.09448819 1052.3622047"
   height="297mm"
   width="210mm">
  <defs
     id="defs4" />
  <metadata
     id="metadata7">
    <rdf:RDF>
      <cc:Work
         rdf:about="">
        <dc:format>image/svg+xml</dc:format>
        <dc:type
           rdf:resource="http://purl.org/dc/dcmitype/StillImage" />
        <dc:title></dc:title>
      </cc:Work>
    </rdf:RDF>
  </metadata>
  <ellipse
     style="opacity:1;fill:none;stroke:#000000;stroke-width:2;stroke-miterlimit:4;stroke-dasharray:none;stroke-opacity:1"
     id="path4773"
     cx="202.68565"
     cy="160.60262"
     rx="139.70424"
     ry="127.39423" />
  <path
     style="fill:none;fill-rule:evenodd;stroke:#000000;stroke-width:1px;stroke-linecap:butt;stroke-linejoin:miter;stroke-opacity:1"
     d="M 121.95492,196.96006 C 133.97865,225.58798 135.12377,250.78055 189.51681,250.20799 C 243.90985,249.63543 286.27916,206.121 286.27916,206.121 C 286.27916,206.121 291.49913,165.67443 274.828,183.79122 C 250.20799,210.54619 221.54974,182.74436 193.49439,183.88952 C 165.43903,185.03464 155.16331,204.40336 140.27679,181.50103 C 128.93561,164.05306 110.85129,170.52289 121.95492,196.9601 Z"
     id="path4775" />
  <path
     style="fill:none;fill-rule:evenodd;stroke:#000000;stroke-width:1px;stroke-linecap:butt;stroke-linejoin:miter;stroke-opacity:1"
     d="M 138.66162,109.84022 C 119.28925,98.358727 133.97865,89.319098 147.72005,89.319098 C 161.46145,89.319098 170.62238,108.21352 170.62238,108.21352"
     id="path4779" />
  <path
     style="fill:none;fill-rule:evenodd;stroke:#000000;stroke-width:1px;stroke-linecap:butt;stroke-linejoin:miter;stroke-opacity:1"
     d="M 214.70937,112.79399 C 223.29775,97.907473 227.876,96.181497 236.46659,93.899565 C 272.36733,84.363194 242.78354,113.27557 242.78354,113.27557"
     id="path4781" />
</svg>
